<?xml version="1.0" encoding="utf-8"?>
<!-- Generator: Adobe Illustrator 23.1.0, SVG Export Plug-In . SVG Version: 6.00 Build 0)  -->
<svg version="1.1" id="calender-icon" xmlns="http://www.w3.org/2000/svg" xmlns:xlink="http://www.w3.org/1999/xlink" x="0px"
	 y="0px" viewBox="0 0 257.93 229.27" style="enable-background:new 0 0 257.93 229.27;" xml:space="preserve">
<style type="text/css">
	.st0{fill:none;}
</style>
<title>calicon</title>
<path d="M129,177.86c-20.23,0-40.47,0-60.72,0c-4.31,0-7.63-1.66-9.49-5.62c-0.59-1.29-0.9-2.69-0.92-4.11
	c-0.06-15.26-0.03-30.52-0.03-45.79c0-15.45,0-30.89,0-46.34c0-3.65,1.16-6.68,4.18-8.83c1.33-0.96,2.94-1.48,4.58-1.48
	c2.34-0.03,4.68,0,7.02,0c1.24,0,2.04,0.71,2.02,1.75c-0.02,1.04-0.81,1.7-2.07,1.7c-2.04,0-4.09,0.09-6.13,0
	c-3.79-0.19-5.99,2.82-6.07,5.72c-0.08,2.76-0.04,5.52-0.04,8.28c0,17.9,0,35.79,0,53.69c0,10.35,0,20.69,0,31.03
	c0,3.98,2.61,6.52,6.62,6.52h107.97c4.71,0,9.42,0,14.13,0c4.01,0,6.56-2.55,6.56-6.56c0-11.79,0-23.59,0-35.38
	c-0.02-0.5-0.01-1.01,0.03-1.51c0.07-0.94,0.9-1.64,1.84-1.57c0.88,0.07,1.56,0.8,1.58,1.68c0.04,0.89,0,1.78,0,2.66
	c0,11.38,0,22.76,0,34.14c0,5.84-4.09,9.99-9.93,10.03c-5.96,0.03-11.92,0-17.87,0L129,177.86z"/>
<path d="M131.75,101.85H76.63c-0.45,0.02-0.89,0-1.34-0.04c-0.93-0.15-1.55-1.02-1.4-1.95c0.12-0.72,0.68-1.29,1.4-1.4
	c0.29-0.04,0.59-0.06,0.88-0.04h85.23c8.39,0,16.77,0,25.16,0c3.63,0,5.75-2.1,5.78-5.73c0.04-5.99,0.07-11.97,0.08-17.96
	c0-3.57-1.98-5.54-5.57-5.54c-1.86,0-3.73,0-5.6,0c-1.29,0-2.09-0.72-2.07-1.8c0.02-1.08,0.79-1.66,2.08-1.66c2.07,0,4.15,0,6.22,0
	c4.57-0.02,8.3,3.64,8.36,8.21c0.07,6.52,0.04,13.04-0.07,19.56c-0.09,4.78-3.95,8.38-8.83,8.39c-13.39,0.02-26.79,0.02-40.18,0
	L131.75,101.85z"/>
<path d="M98.91,64.26c0,1.78,0.03,3.55,0,5.33c0.02,4.03-3.22,7.32-7.25,7.36c-1.03,0.06-2.07,0.06-3.11,0
	c-3.58-0.25-6.59-3.03-6.74-6.62c-0.18-4.1-0.17-8.23,0-12.34c0.15-3.49,3.14-6.27,6.62-6.53c1.09-0.08,2.19-0.09,3.28-0.03
	c4.03,0.08,7.23,3.39,7.17,7.42c0.03,1.81,0,3.61,0,5.42L98.91,64.26z M85.2,64.11c0,0.89,0,1.78,0,2.66s0,1.84,0,2.76
	c-0.04,2.15,1.66,3.92,3.81,3.97c0.04,0,0.08,0,0.12,0c0.83,0,1.66,0.03,2.49,0c2.03,0.01,3.71-1.59,3.8-3.62
	c0.08-3.76,0.08-7.52,0-11.28c-0.03-2.1-1.76-3.77-3.86-3.74c0,0,0,0,0,0c-0.8,0-1.6,0-2.4,0c-2.13-0.04-3.9,1.65-3.94,3.78
	c0,0.07,0,0.14,0,0.21C85.19,60.61,85.2,62.36,85.2,64.11L85.2,64.11z"/>
<path d="M156.48,64.16c0-1.72,0-3.44,0-5.15c0.04-4.36,3.02-7.44,7.38-7.6c1.01-0.04,2.01-0.03,3.02,0.03
	c3.75,0.24,6.69,3.31,6.78,7.07c0.06,3.76,0.06,7.52,0,11.28c-0.08,3.82-3.09,6.94-6.91,7.14c-1.03,0.06-2.07,0.06-3.11,0
	c-3.92-0.08-7.07-3.25-7.14-7.17c-0.06-1.86,0-3.73,0-5.59L156.48,64.16z M170.22,64.2L170.22,64.2c0-1.84,0-3.67,0-5.52
	c0-2.06-1.63-3.75-3.69-3.82c-0.89-0.05-1.78-0.04-2.66,0c-2.13,0.06-3.8,1.51-3.86,3.65c-0.1,3.79-0.09,7.58,0,11.37
	c0.06,2.11,1.73,3.56,3.86,3.62c0.74,0,1.48,0,2.21,0c2.17,0.13,4.02-1.53,4.15-3.69c0.01-0.16,0.01-0.32,0-0.48
	c0.01-1.71,0.01-3.42,0.01-5.13H170.22z"/>
<path d="M127.8,69.16h-19.26c-1.61,0-2.42-0.55-2.45-1.69s0.81-1.78,2.44-1.78h38.74c0.35-0.01,0.71,0.01,1.05,0.08
	c0.82,0.18,1.37,0.95,1.29,1.78c-0.03,0.81-0.65,1.47-1.45,1.55c-0.71,0.06-1.42,0.08-2.13,0.06L127.8,69.16z"/>
<circle class="st0" cx="128.96" cy="114.64" r="114.64"/>
</svg>
