<svg id="logo-icon" xmlns="http://www.w3.org/2000/svg" viewBox="0 0 19.97 25.38"><defs><style>.cls-1{fill:none;stroke:#000;stroke-miterlimit:10;}</style></defs><title>logo-icon</title><path class="cls-1" d="M409.54,273.55a3.22,3.22,0,0,1-2.55,3.77,10.37,10.37,0,0,0-8.3,8.89,10.47,10.47,0,0,1-1.12-3.06,10.35,10.35,0,0,1,8-12.11l.16,0,.17,0A3.22,3.22,0,0,1,409.54,273.55Z" transform="translate(-393.65 -262.41)"/><path class="cls-1" d="M401.62,271.76a2,2,0,0,1-.05.48,2,2,0,0,1-2.34,1.5l-.1,0-.11,0a6.5,6.5,0,0,1-3.89-9.72,6.48,6.48,0,0,0,2,4.21,6.33,6.33,0,0,0,2.35,1.43,5.72,5.72,0,0,0,.59.17,2,2,0,0,1,1.53,1.75s0,.06,0,.08Z" transform="translate(-393.65 -262.41)"/><path class="cls-1" d="M399.49,269.62a6.33,6.33,0,0,1-2.35-1.43,3.68,3.68,0,0,1,.28-.95,4.13,4.13,0,0,1,.73-1.17A4.36,4.36,0,0,0,399.49,269.62Z" transform="translate(-393.65 -262.41)"/><circle class="cls-1" cx="16.67" cy="7.25" r="2.8"/></svg>